<svg width="150" height="22" viewBox="0 0 150 22" fill="none" xmlns="http://www.w3.org/2000/svg">
<g clip-path="url(#clip0_2235_3147)">
<path opacity="0.5" d="M18.283 18.4319C18.2696 18.4519 18.2585 18.472 18.2451 18.4898C18.2585 18.472 18.2696 18.4475 18.283 18.4319Z" fill="white"/>
<path opacity="0.5" d="M18.4697 17.323L18.4831 17.3943L18.4697 17.323Z" fill="white"/>
<path opacity="0.5" d="M18.3562 18.3018C18.3457 18.3262 18.3338 18.3499 18.3206 18.373C18.3338 18.3499 18.3457 18.3262 18.3562 18.3018Z" fill="white"/>
<path opacity="0.5" d="M18.1987 18.5535L18.1609 18.6002L18.1987 18.5535Z" fill="white"/>
<path opacity="0.5" d="M18.4123 18.1694C18.4012 18.1962 18.3923 18.2229 18.3789 18.2496C18.3923 18.2318 18.4012 18.1962 18.4123 18.1694Z" fill="white"/>
<path opacity="0.5" d="M18.4956 17.4727C18.4967 17.4927 18.4967 17.5128 18.4956 17.5328C18.4967 17.5128 18.4967 17.4927 18.4956 17.4727Z" fill="white"/>
<path opacity="0.5" d="M17.6349 18.9963L17.606 19.0097L17.6349 18.9963Z" fill="white"/>
<path opacity="0.5" d="M18.4831 17.9045C18.4831 17.929 18.4831 17.9535 18.4697 17.978C18.4742 17.9535 18.4809 17.929 18.4831 17.9045Z" fill="white"/>
<path opacity="0.5" d="M18.4552 18.0371C18.4552 18.0638 18.4396 18.0906 18.4307 18.1173C18.4396 18.0928 18.4463 18.0638 18.4552 18.0371Z" fill="white"/>
<path opacity="0.5" d="M17.8993 18.8442L17.8347 18.8865L17.8993 18.8442Z" fill="white"/>
<path opacity="0.5" d="M18.4998 17.7678C18.5009 17.7886 18.5009 17.8094 18.4998 17.8302C18.5009 17.8094 18.5009 17.7886 18.4998 17.7678Z" fill="white"/>
<path opacity="0.5" d="M18.1038 18.6643L18.0659 18.7044L18.1038 18.6643Z" fill="white"/>
<path opacity="0.5" d="M18.0046 18.7598L17.9556 18.7999L18.0046 18.7598Z" fill="white"/>
<path opacity="0.5" d="M18.4265 17.1775C18.4265 17.2042 18.4443 17.2309 18.4532 17.2577C18.4443 17.2309 18.4376 17.2042 18.4265 17.1775Z" fill="white"/>
<path opacity="0.5" d="M18.3726 17.0386C18.3859 17.0675 18.3971 17.0965 18.4082 17.1254C18.3971 17.0965 18.3859 17.0675 18.3726 17.0386Z" fill="white"/>
<path opacity="0.5" d="M18.5063 17.6515C18.5074 17.6419 18.5074 17.6322 18.5063 17.6226C18.5075 17.6418 18.5075 17.6612 18.5063 17.6805V17.6515Z" fill="white"/>
<path opacity="0.5" d="M17.7852 18.9182L17.7051 18.9628L17.7852 18.9182Z" fill="white"/>
<path opacity="0.5" d="M18.0678 18.7034L18.0032 18.7613L18.0678 18.7034Z" fill="white"/>
<path opacity="0.5" d="M17.683 18.9748L17.7075 18.9614L17.634 18.9971L17.683 18.9748Z" fill="white"/>
<path opacity="0.5" d="M17.8364 18.8813L17.783 18.9148L17.8364 18.8813Z" fill="white"/>
<path opacity="0.5" d="M17.9576 18.7988L17.8975 18.8456L17.9576 18.7988Z" fill="white"/>
<path opacity="0.5" d="M17.6092 19.0093C17.5713 19.0226 17.5335 19.0382 17.4956 19.0494C17.5341 19.038 17.572 19.0246 17.6092 19.0093Z" fill="white"/>
<path opacity="0.5" d="M17.4692 19.0591L17.3467 19.0903L17.4692 19.0591Z" fill="white"/>
<path opacity="0.5" d="M18.496 17.8286L18.4827 17.9065L18.496 17.8286Z" fill="white"/>
<path opacity="0.5" d="M18.5063 17.679C18.5063 17.7079 18.5063 17.7391 18.5063 17.7703C18.5041 17.7391 18.5041 17.7079 18.5063 17.679Z" fill="white"/>
<path opacity="0.5" d="M18.4314 18.1152L18.4114 18.1709L18.4314 18.1152Z" fill="white"/>
<path opacity="0.5" d="M18.4702 17.9763C18.4702 17.9964 18.4702 18.0186 18.4546 18.0387C18.459 18.0142 18.4657 17.9964 18.4702 17.9763Z" fill="white"/>
<path opacity="0.5" d="M18.4998 17.5312C18.4998 17.5624 18.4998 17.5936 18.4998 17.6248C18.5042 17.5936 18.502 17.5624 18.4998 17.5312Z" fill="white"/>
<path opacity="0.5" d="M18.4827 17.3923L18.496 17.4747L18.4827 17.3923Z" fill="white"/>
<path opacity="0.5" d="M18.3798 18.2476C18.3731 18.2671 18.3641 18.2858 18.353 18.3032C18.3641 18.2858 18.3731 18.2671 18.3798 18.2476Z" fill="white"/>
<path opacity="0.5" d="M17.0356 19.1197C17.134 19.1228 17.2324 19.1155 17.3293 19.0981C17.2355 19.1173 17.14 19.1267 17.0443 19.1262L17.0356 19.1197Z" fill="white"/>
<path d="M18.3724 17.0386C18.3716 17.0299 18.3716 17.0212 18.3724 17.0125L10.5683 0.828833C10.5619 0.814654 10.5547 0.800883 10.5467 0.787598C10.6529 0.99084 10.7102 1.21631 10.714 1.44586C10.7177 1.67542 10.6678 1.90265 10.5683 2.10929L9.25317 4.84166L14.7144 16.1835H17.0444C17.3239 16.1835 17.5976 16.264 17.833 16.4156C18.0684 16.5671 18.2556 16.7833 18.3724 17.0386Z" fill="white"/>
<path opacity="0.5" d="M18.4524 17.2556C18.457 17.2789 18.463 17.302 18.4702 17.3246C18.4635 17.3024 18.4591 17.2801 18.4524 17.2556Z" fill="white"/>
<path opacity="0.5" d="M18.1025 18.6659C18.1226 18.6437 18.1449 18.6214 18.1627 18.5991L18.1025 18.6659Z" fill="white"/>
<path opacity="0.5" d="M18.2465 18.4885C18.2309 18.513 18.2131 18.5331 18.1975 18.5553C18.2131 18.5331 18.2309 18.513 18.2465 18.4885Z" fill="white"/>
<path opacity="0.5" d="M18.3196 18.3713L18.2817 18.4337L18.3196 18.3713Z" fill="white"/>
<path opacity="0.5" d="M18.407 17.1233C18.4146 17.1415 18.4213 17.1601 18.427 17.179C18.4213 17.1601 18.4146 17.1415 18.407 17.1233Z" fill="white"/>
<path d="M18.1975 18.5535C18.2126 18.5318 18.2299 18.5123 18.245 18.4884C18.2601 18.4645 18.2688 18.4515 18.2817 18.432L18.3184 18.3712C18.3312 18.3487 18.3428 18.3256 18.353 18.3018C18.3638 18.2848 18.3725 18.2666 18.3789 18.2475C18.3918 18.2215 18.4005 18.1954 18.4113 18.1694L18.4307 18.1151C18.4307 18.0891 18.4458 18.063 18.4545 18.037C18.4631 18.011 18.4653 17.9958 18.4696 17.9762C18.4739 17.9567 18.4696 17.9285 18.4825 17.9046L18.4955 17.8287C18.4966 17.8084 18.4966 17.7881 18.4955 17.7679C18.4955 17.7375 18.4955 17.7071 18.4955 17.6789C18.4966 17.6601 18.4966 17.6413 18.4955 17.6225C18.4955 17.5921 18.4955 17.5617 18.4955 17.5313C18.4966 17.5118 18.4966 17.4923 18.4955 17.4727L18.4825 17.3924L18.4696 17.323C18.4626 17.3009 18.4568 17.2784 18.4523 17.2557C18.4523 17.2297 18.4372 17.2036 18.4264 17.1776C18.4209 17.1592 18.4144 17.141 18.407 17.1233C18.407 17.0951 18.3854 17.0669 18.3724 17.0387C18.2556 16.7835 18.0683 16.5673 17.833 16.4157C17.5976 16.2642 17.3239 16.1836 17.0444 16.1836H14.7144L14.7316 16.2227L15.7293 18.2909C15.8471 18.5366 16.0307 18.7444 16.2596 18.8909C16.4885 19.0374 16.7536 19.1167 17.0249 19.12C17.1269 19.124 17.229 19.1167 17.3294 19.0983H17.3467L17.4655 19.0679H17.4957C17.5324 19.0679 17.5691 19.0418 17.6058 19.0288L17.6339 19.0158L17.7052 18.9811L17.7829 18.9377L17.8347 18.9051L17.8973 18.8639L17.9556 18.8183L18.0032 18.7792L18.0658 18.7228L18.1025 18.6837L18.1608 18.6186L18.1975 18.5535Z" fill="white"/>
<path d="M10.5467 0.787716L10.5057 0.711756L10.4711 0.650989C10.4573 0.627735 10.4421 0.605275 10.4258 0.58371L10.3848 0.531624L10.3351 0.473027L10.2876 0.433962L10.2358 0.381876L10.1796 0.33413L10.1235 0.290724L10.0608 0.247319L10.0047 0.216935L9.93344 0.169189L9.87729 0.140976C9.85435 0.129024 9.83053 0.118866 9.80603 0.110592C9.78444 0.110592 9.76284 0.0910597 9.74125 0.0845489L9.6851 0.0671867C9.65703 0.0671867 9.62896 0.0476543 9.60088 0.0411435H9.57065L9.46268 0.0216111H9.44757C9.40622 0.012214 9.36441 0.00497016 9.32232 -9.15632e-05H9.18196H9.10638C9.08552 -0.00127156 9.06461 -0.00127156 9.04375 -9.15632e-05L8.96169 0.0302922L8.90339 0.0433138C8.88072 0.0485254 8.85837 0.055047 8.83645 0.0628462L8.76519 0.0845489L8.70904 0.106252L8.63778 0.140976L8.58811 0.167019C8.56004 0.180041 8.53413 0.195233 8.50822 0.210424L8.45855 0.242978C8.43468 0.25764 8.41161 0.273578 8.38945 0.290724L8.33762 0.331959L8.27932 0.381876L8.22101 0.433962L8.17135 0.486048L8.12384 0.542475L8.08065 0.596732L8.0353 0.650989L8.00075 0.703075C7.98563 0.729118 7.97268 0.755162 7.95972 0.781205C7.86863 0.956235 7.81364 1.14795 7.79805 1.34486C7.78247 1.54176 7.80661 1.7398 7.86903 1.92711L8.60755 3.49187L9.25538 4.83309L10.5683 2.10941C10.6679 1.90277 10.7178 1.67553 10.714 1.44598C10.7103 1.21642 10.653 0.990958 10.5467 0.787716Z" fill="white"/>
<path d="M15.8783 18.5362C15.8196 18.4603 15.7696 18.378 15.7293 18.2909L15.8308 18.508L14.7317 16.2227L14.7144 16.1836H7.75024C7.37251 16.1982 7.0151 16.3593 6.753 16.633C6.4909 16.9067 6.34448 17.2719 6.34448 17.6518C6.34448 18.0317 6.4909 18.3968 6.753 18.6706C7.0151 18.9443 7.37251 19.1054 7.75024 19.12H17.0358C16.8111 19.1192 16.5896 19.0661 16.3888 18.9648C16.1879 18.8635 16.0132 18.7168 15.8783 18.5362Z" fill="white"/>
<path d="M8.60754 3.50046L7.95971 2.08327C7.92887 2.03573 7.90075 1.98646 7.87549 1.9357C7.81307 1.74839 7.78893 1.55035 7.80452 1.35345C7.8201 1.15654 7.87509 0.964825 7.96619 0.789795L7.94459 0.82886L0.146916 17.0125C0.0634022 17.1861 0.0147216 17.3745 0.003654 17.567C-0.00741363 17.7595 0.0193485 17.9522 0.0824123 18.1343C0.145476 18.3164 0.243607 18.4842 0.371201 18.6282C0.498796 18.7722 0.653355 18.8894 0.826055 18.9734C0.998755 19.0573 1.18621 19.1062 1.37773 19.1174C1.56924 19.1285 1.76106 19.1016 1.94223 19.0382C2.1234 18.9748 2.29037 18.8762 2.43362 18.748C2.57687 18.6197 2.69358 18.4644 2.77709 18.2908L9.25536 4.83517L9.22945 4.78092L8.60754 3.50046Z" fill="white"/>
<path opacity="0.35" d="M15.8782 18.5362L14.7316 16.2227L14.7143 16.1836H13.749L15.8782 18.5362Z" fill="white"/>
<path opacity="0.35" d="M7.95334 2.11821C7.92527 2.05961 7.89503 1.98799 7.87344 1.94458L7.854 1.88599L8.76528 5.85975L9.21876 4.92653L9.25331 4.85274L8.60548 3.51152L7.95334 2.11821Z" fill="white"/>
<path d="M18.5042 17.6225C18.5042 17.5921 18.5042 17.5617 18.5042 17.5313C18.5053 17.5118 18.5053 17.4923 18.5042 17.4727L18.4912 17.3924L18.4783 17.323C18.4712 17.3009 18.4655 17.2784 18.461 17.2557C18.461 17.2297 18.4459 17.2036 18.4351 17.1776C18.4296 17.1592 18.4231 17.141 18.4156 17.1233C18.4156 17.0951 18.3941 17.0669 18.3811 17.0387C18.3802 17.03 18.3802 17.0213 18.3811 17.0126L10.5683 0.828951C10.562 0.814772 10.5547 0.801001 10.5467 0.787716L10.5057 0.711756L10.4711 0.650989C10.4573 0.627735 10.4421 0.605275 10.4258 0.583711L10.3848 0.531624L10.3351 0.473027L10.2876 0.433962L10.2358 0.381876L10.1796 0.33413L10.1235 0.290724L10.0608 0.247319L10.0047 0.216935L9.93343 0.169189L9.87729 0.140976C9.85435 0.129024 9.83052 0.118866 9.80603 0.110592C9.78443 0.110592 9.76284 0.0910597 9.74125 0.0845489L9.6851 0.0671867C9.65703 0.0671867 9.62895 0.0476543 9.60088 0.0411435H9.57065L9.46268 0.0216111H9.44756C9.40621 0.012214 9.36441 0.00497016 9.32232 -9.1563e-05H9.18195H9.10637C9.08552 -0.00127156 9.06461 -0.00127156 9.04375 -9.1563e-05L8.96169 0.0302922L8.90339 0.0433138C8.88072 0.0485254 8.85837 0.055047 8.83645 0.0628462L8.76519 0.0845489L8.70904 0.106252L8.63778 0.140976L8.58811 0.167019C8.56004 0.180041 8.53413 0.195233 8.50821 0.210424L8.45855 0.242978C8.43468 0.25764 8.41161 0.273578 8.38945 0.290724L8.33762 0.331959L8.27932 0.381876L8.22101 0.433962L8.17134 0.486048L8.12384 0.542475L8.08065 0.596732L8.0353 0.650989L8.00075 0.703075C7.98563 0.729119 7.97268 0.755162 7.95972 0.781205C7.86863 0.956235 7.81364 1.14795 7.79805 1.34486C7.78247 1.54176 7.80661 1.7398 7.86903 1.92711V1.94881C7.94892 2.1246 8.19294 2.64981 8.19294 2.64981L9.24458 4.8331L14.7144 16.1836L14.7317 16.2227L15.7293 18.2909C15.7842 18.4146 15.857 18.5294 15.9453 18.6317C16.0814 18.7842 16.2478 18.9065 16.4337 18.9906C16.6197 19.0747 16.8211 19.1188 17.025 19.12C17.127 19.124 17.2291 19.1167 17.3295 19.0983H17.3467L17.4655 19.0679H17.4957C17.5324 19.0679 17.5692 19.0418 17.6059 19.0288L17.6339 19.0158L17.7052 18.9811L17.7829 18.9377L17.8348 18.9051L17.8974 18.8639L17.9557 18.8183L18.0032 18.7792L18.0658 18.7228L18.1025 18.6837L18.1608 18.6186L18.1975 18.5731C18.2127 18.5514 18.2299 18.5318 18.2451 18.508C18.2602 18.4841 18.2688 18.4711 18.2818 18.4515L18.3185 18.3908C18.3313 18.3683 18.3428 18.3451 18.353 18.3213C18.3638 18.3043 18.3725 18.2861 18.3789 18.2671C18.3919 18.241 18.4005 18.215 18.4113 18.1889L18.4308 18.1347C18.4308 18.1086 18.4459 18.0826 18.4545 18.0565C18.4632 18.0305 18.4653 18.0153 18.4696 17.9958C18.474 17.9762 18.4696 17.948 18.4826 17.9242L18.4955 17.8482C18.4966 17.8279 18.4966 17.8077 18.4955 17.7874C18.4955 17.757 18.4955 17.7267 18.4955 17.6984C18.5004 17.6734 18.5033 17.648 18.5042 17.6225Z" fill="white"/>
<path d="M34.1189 13.3687L34.0368 13.4967C33.6217 14.1795 33.0228 14.7303 32.3093 15.0854C31.6269 15.4155 30.8791 15.5862 30.1218 15.5845C29.3517 15.5991 28.588 15.4415 27.886 15.1233C27.1839 14.805 26.5609 14.3339 26.0621 13.7441C25.5746 13.1627 25.199 12.4952 24.9543 11.7757C24.6938 11.0146 24.5624 10.215 24.5656 9.41012C24.562 8.60595 24.6904 7.80668 24.9456 7.04452C25.1835 6.32491 25.5558 5.65755 26.0426 5.07826C26.5437 4.48601 27.1698 4.0135 27.8754 3.69513C28.5811 3.37677 29.3485 3.22056 30.1218 3.23788C30.5245 3.23538 30.9256 3.28869 31.3138 3.3963C31.6701 3.49733 32.0141 3.63781 32.3395 3.81517C32.6359 3.97438 32.9091 4.17374 33.1515 4.40765C33.3618 4.60672 33.5468 4.83125 33.7021 5.07609L33.7885 5.21716L35.1986 4.12334L35.1252 4.00832C34.8759 3.63313 34.5707 3.29862 34.2204 3.01651C33.8526 2.72181 33.4518 2.47126 33.0262 2.26994C32.5777 2.06135 32.1087 1.90059 31.6269 1.79031C31.1308 1.6778 30.6239 1.62103 30.1153 1.62103C29.1163 1.61404 28.1267 1.81503 27.2087 2.21134C26.3352 2.59169 25.5465 3.14446 24.8895 3.83687C24.2217 4.5474 23.698 5.38185 23.3477 6.29361C22.9698 7.28676 22.7816 8.34256 22.7927 9.40578C22.782 10.468 22.9665 11.523 23.3369 12.5179C23.6767 13.4293 24.1901 14.2653 24.8485 14.979C25.5027 15.6747 26.2921 16.228 27.1677 16.6046C28.0945 17.0012 29.0928 17.2015 30.1002 17.1927C30.6925 17.2004 31.283 17.1274 31.8558 16.9757C32.3693 16.8354 32.8633 16.6313 33.3264 16.368C33.7552 16.1238 34.1502 15.8239 34.5011 15.476C34.8282 15.1477 35.1179 14.7837 35.3649 14.3909L35.4426 14.2672L34.1189 13.3687Z" fill="white"/>
<path d="M44.7216 8.18826C44.1192 7.42866 43.21 7.04453 42.0159 7.04453C41.3493 7.04432 40.6946 7.22101 40.1178 7.55671C39.703 7.7904 39.3475 8.11719 39.0791 8.51163V1.38013H37.4617V17.197H39.0856V12.1208C39.072 11.5709 39.1449 11.0223 39.3015 10.4953C39.4268 10.0868 39.6283 9.70597 39.8953 9.37322C40.1205 9.09636 40.4046 8.87386 40.7267 8.72214C41.0264 8.58152 41.3526 8.50749 41.6833 8.50512C42.0712 8.49152 42.4567 8.57036 42.8084 8.73516C43.0942 8.88018 43.3358 9.09983 43.508 9.37105C43.6966 9.67792 43.8249 10.0183 43.8859 10.3737C43.9656 10.8184 44.0039 11.2696 44.0004 11.7215V17.197H45.6156V11.1572C45.6178 9.93749 45.3176 8.93917 44.7216 8.18826Z" fill="white"/>
<path d="M66.9421 8.18841C66.3397 7.42882 65.4305 7.04468 64.2364 7.04468C63.5546 7.04589 62.8864 7.23668 62.3059 7.59593C61.8759 7.84759 61.5071 8.19233 61.2262 8.6051C61.2262 8.51178 61.2262 8.40978 61.2154 8.30343C61.2024 7.99308 61.183 7.7001 61.1571 7.43533L61.1441 7.30077H59.5872L59.6001 7.46137C59.626 7.79342 59.6455 8.16237 59.6563 8.56169C59.6671 8.96102 59.6757 9.30393 59.6757 9.56436V17.1972H61.2931V12.1209C61.2796 11.571 61.3525 11.0225 61.509 10.4954C61.6352 10.0873 61.8367 9.70664 62.1029 9.37337C62.328 9.09652 62.6121 8.87401 62.9343 8.72229C63.2339 8.58167 63.5602 8.50764 63.8909 8.50527C64.2787 8.49192 64.6641 8.57074 65.0159 8.73532C65.3017 8.88034 65.5434 9.09998 65.7156 9.3712C65.9042 9.67808 66.0324 10.0184 66.0935 10.3739C66.1723 10.8187 66.2099 11.2698 66.2058 11.7216V17.1972H67.8232V11.1573C67.8275 9.93764 67.5273 8.93932 66.9421 8.18841Z" fill="white"/>
<path d="M78.0674 7.16183V8.53778C77.7186 8.07058 77.268 7.68976 76.7502 7.42444C76.1314 7.09436 75.4424 6.91939 74.7419 6.91442C74.0573 6.90605 73.3788 7.04363 72.7509 7.31809C72.1718 7.57464 71.6525 7.95019 71.2264 8.42059C70.8013 8.89765 70.4688 9.45046 70.246 10.0505C70.0124 10.6845 69.8946 11.3558 69.8984 12.0319C69.8933 12.7152 70.011 13.3938 70.246 14.0351C70.4639 14.6289 70.798 15.1727 71.2286 15.6346C71.6596 16.0862 72.1786 16.4437 72.7531 16.685C73.3834 16.9464 74.0601 17.0764 74.7419 17.0669C75.4451 17.0615 76.1368 16.8866 76.7588 16.5569C77.2723 16.3013 77.7201 15.9299 78.0674 15.4718V16.8412C78.0698 17.3238 78.0058 17.8043 77.8774 18.2693C77.764 18.6876 77.5654 19.0778 77.2944 19.4152C77.0146 19.7523 76.6573 20.016 76.2535 20.1834C75.6877 20.4023 75.0817 20.4962 74.4766 20.4588C73.8714 20.4213 73.2814 20.2534 72.7466 19.9664C72.1855 19.6733 71.6953 19.2599 71.3106 18.7554L71.2026 18.6078L70.0387 19.91L70.1294 20.0098C70.6904 20.6306 71.3755 21.1254 72.1398 21.4617C72.9155 21.8107 73.756 21.9904 74.6059 21.9891C75.4779 22.0242 76.3458 21.8516 77.1389 21.4856C77.7459 21.1839 78.2774 20.7485 78.6937 20.2117C79.0655 19.7147 79.3289 19.1445 79.4667 18.5384C79.6024 17.9827 79.6748 17.4133 79.6827 16.8412V7.16183H78.0674ZM78.2208 11.9907C78.2273 12.4938 78.1424 12.9939 77.9703 13.4665C77.815 13.8863 77.5778 14.2707 77.2728 14.5972C76.9797 14.9125 76.6235 15.1618 76.2276 15.3286C75.8025 15.5018 75.3475 15.5888 74.8888 15.5846C74.4094 15.5932 73.934 15.4962 73.4959 15.3003C73.102 15.1202 72.7513 14.8566 72.4681 14.5277C72.1829 14.1914 71.9631 13.8041 71.8202 13.3862C71.5208 12.4846 71.5208 11.5097 71.8202 10.6082C71.9633 10.1904 72.1831 9.80317 72.4681 9.46666C72.749 9.13559 73.0963 8.86787 73.4873 8.68102C73.9231 8.47958 74.3984 8.37943 74.878 8.38804C75.3384 8.38349 75.7939 8.48365 76.2103 8.68102C76.6108 8.87278 76.9708 9.14025 77.2706 9.46883C77.5727 9.80292 77.81 10.1908 77.9703 10.6126C78.1386 11.0545 78.2235 11.524 78.2208 11.9972V11.9907Z" fill="white"/>
<path d="M90.6959 9.816C90.5104 9.24557 90.2172 8.71648 89.8322 8.25775C89.4449 7.80368 88.9636 7.44002 88.4221 7.19215C87.8102 6.92132 87.1471 6.78729 86.4786 6.79933C85.8359 6.79507 85.1998 6.929 84.6128 7.19215C84.0411 7.4473 83.5268 7.81647 83.1012 8.27728C82.6666 8.75816 82.3273 9.31797 82.1014 9.92668C81.8585 10.5871 81.737 11.2865 81.743 11.9906C81.7359 12.6965 81.8611 13.3974 82.1122 14.0567C82.3464 14.6691 82.6945 15.2311 83.1379 15.7126C83.5682 16.1777 84.0904 16.5473 84.6711 16.7978C85.2775 17.0626 85.9319 17.1986 86.593 17.1971C87.345 17.2011 88.0882 17.035 88.7676 16.7109C89.5032 16.3327 90.1373 15.7818 90.616 15.1049L90.7024 14.9899L89.4694 13.9677L89.3808 14.1175C89.1045 14.5657 88.7319 14.9461 88.2903 15.2308C87.7866 15.5575 87.1966 15.7239 86.5973 15.7083C86.1706 15.7118 85.7483 15.6215 85.36 15.4435C84.983 15.2722 84.6427 15.029 84.358 14.7273C84.0684 14.4206 83.841 14.0601 83.6886 13.6661C83.5448 13.2984 83.4595 12.9102 83.4359 12.5158H90.9421L90.9572 12.3834C90.9702 12.2532 90.9767 12.1317 90.9767 12.0188V11.7193C90.9843 11.0739 90.8895 10.4314 90.6959 9.816ZM83.4705 11.1182C83.5076 10.783 83.5964 10.4557 83.734 10.1481C83.8923 9.79132 84.1115 9.46519 84.3818 9.18445C84.6528 8.90582 84.9727 8.67994 85.3254 8.51818C85.6912 8.35526 86.0872 8.27241 86.4872 8.27511C87.3834 8.27511 88.0787 8.55942 88.5581 9.11717C89.0282 9.68082 89.302 10.3835 89.3377 11.1182H83.4705Z" fill="white"/>
<path d="M93.2871 17.0474V1.62769H102.05V2.06174H93.719V8.83732H101.236V9.27137H93.719V16.6112H102.033V17.0453L93.2871 17.0474Z" fill="white"/>
<path d="M105.555 8.91745C105.804 8.58712 106.099 8.29473 106.432 8.04934C106.755 7.8134 107.114 7.63029 107.494 7.50678C107.877 7.38331 108.277 7.32106 108.68 7.3223C109.245 7.30186 109.806 7.42188 110.314 7.67172C110.731 7.88875 111.089 8.20551 111.355 8.59408C111.619 8.98914 111.806 9.43104 111.906 9.89624C112.015 10.3745 112.07 10.8638 112.07 11.3547V17.0473H111.621V11.3829C111.618 10.969 111.577 10.5563 111.498 10.1502C111.422 9.7271 111.265 9.32263 111.038 8.95868C110.806 8.59636 110.496 8.29141 110.131 8.0667C109.691 7.81179 109.189 7.6869 108.682 7.70644C108.176 7.70219 107.676 7.81053 107.217 8.02367C106.758 8.23681 106.352 8.54946 106.028 8.93915C105.675 9.36794 105.405 9.85878 105.231 10.3867C105.029 11.013 104.934 11.6689 104.948 12.3269V17.0473H104.499V9.98305C104.499 9.8333 104.499 9.64883 104.488 9.42963C104.477 9.21044 104.475 8.99558 104.469 8.76336C104.462 8.53114 104.451 8.32931 104.436 8.11228C104.421 7.89525 104.41 7.73465 104.397 7.59793H104.847C104.86 7.73465 104.87 7.90611 104.877 8.11228C104.883 8.31846 104.89 8.54633 104.896 8.77855C104.903 9.01077 104.909 9.25167 104.918 9.47738C104.927 9.70309 104.918 9.91143 104.918 10.0807H104.959C105.089 9.66121 105.291 9.26761 105.555 8.91745Z" fill="white"/>
<path d="M123.467 14.2151H123.405C123.24 14.6607 122.998 15.0735 122.69 15.4348C122.4 15.7756 122.064 16.0731 121.69 16.3181C121.322 16.5589 120.919 16.7425 120.496 16.8628C120.068 16.9861 119.624 17.0482 119.179 17.0473C118.529 17.054 117.886 16.9246 117.289 16.6675C116.726 16.4254 116.219 16.0693 115.799 15.6214C115.376 15.163 115.047 14.6254 114.83 14.0393C114.593 13.4061 114.475 12.7343 114.482 12.0578C114.476 11.3787 114.594 10.7041 114.83 10.0677C115.045 9.47503 115.374 8.93028 115.797 8.46388C116.215 8.01068 116.722 7.65062 117.287 7.40696C117.884 7.15084 118.527 7.02154 119.177 7.02717C120.086 7.01643 120.977 7.28357 121.732 7.7932C122.487 8.30283 123.071 9.03092 123.405 9.88107H123.467V7.31798H123.917V16.2269C123.919 16.9519 123.84 17.6748 123.681 18.382C123.54 19.0267 123.277 19.6382 122.906 20.1833C122.538 20.7093 122.046 21.1357 121.474 21.4247C120.79 21.7531 120.038 21.9117 119.28 21.887C118.465 21.9015 117.656 21.744 116.905 21.4247C116.225 21.1266 115.619 20.6821 115.13 20.1226L115.434 19.8144C115.915 20.3756 116.521 20.8151 117.203 21.097C117.862 21.3636 118.566 21.4993 119.276 21.4963C119.985 21.5242 120.689 21.3712 121.323 21.0514C121.845 20.7717 122.288 20.3622 122.608 19.8621C122.932 19.3433 123.157 18.7686 123.273 18.1671C123.404 17.5157 123.469 16.8525 123.467 16.1879V14.2151ZM114.929 12.0578C114.927 12.6593 115.027 13.2568 115.225 13.8244C115.41 14.3674 115.699 14.8693 116.073 15.3024C116.443 15.7286 116.899 16.0711 117.41 16.3072C117.964 16.5611 118.568 16.6879 119.177 16.6783C119.773 16.6849 120.363 16.5582 120.904 16.3072C121.419 16.067 121.881 15.7253 122.262 15.3024C122.649 14.8689 122.953 14.368 123.161 13.8244C123.596 12.6738 123.596 11.4028 123.161 10.2522C122.954 9.71138 122.65 9.21387 122.262 8.78508C121.878 8.36739 121.417 8.02902 120.904 7.78893C120.354 7.54208 119.759 7.4145 119.157 7.4145C118.555 7.4145 117.96 7.54208 117.41 7.78893C116.9 8.03195 116.445 8.37765 116.073 8.80461C115.699 9.23834 115.411 9.74002 115.225 10.2826C115.026 10.853 114.926 11.4534 114.929 12.0578Z" fill="white"/>
<path d="M127.266 17.0475V7.59595H127.715V17.0475H127.266Z" fill="white"/>
<path d="M132.23 8.91745C132.48 8.58756 132.776 8.29525 133.109 8.04934C133.432 7.81255 133.791 7.62937 134.171 7.50678C134.554 7.38314 134.953 7.32089 135.355 7.3223C135.92 7.30186 136.481 7.42188 136.989 7.67172C137.407 7.88755 137.765 8.20454 138.03 8.59408C138.294 8.9895 138.482 9.43122 138.583 9.89624C138.691 10.3748 138.745 10.864 138.745 11.3547V17.0473H138.296V11.3829C138.293 10.9691 138.252 10.5566 138.175 10.1502C138.099 9.7271 137.943 9.32263 137.715 8.95868C137.482 8.59659 137.172 8.29174 136.806 8.0667C136.365 7.81205 135.863 7.6872 135.355 7.70644C134.851 7.70348 134.352 7.81243 133.895 8.02553C133.438 8.23862 133.033 8.5506 132.709 8.93915C132.358 9.36859 132.089 9.85929 131.915 10.3867C131.707 11.0119 131.606 11.6679 131.617 12.3269V17.0473H131.168V9.98305C131.168 9.8333 131.168 9.64883 131.168 9.42963C131.168 9.21044 131.152 8.99558 131.146 8.76336C131.14 8.53114 131.129 8.32931 131.116 8.11228C131.103 7.89525 131.077 7.74116 131.077 7.59576H131.509C131.522 7.73248 131.533 7.90393 131.539 8.11011C131.546 8.31629 131.552 8.54416 131.561 8.77638C131.569 9.0086 131.574 9.2495 131.58 9.47521C131.587 9.70092 131.58 9.90926 131.58 10.0785H131.621C131.755 9.65886 131.961 9.26593 132.23 8.91745Z" fill="white"/>
<path d="M141.604 11.9363C141.605 12.5137 141.691 13.0877 141.859 13.6399C142.023 14.1869 142.286 14.6984 142.636 15.1483C142.991 15.6026 143.441 15.973 143.954 16.2334C144.538 16.5189 145.183 16.6596 145.832 16.6436C146.511 16.6591 147.184 16.5103 147.793 16.2095C148.382 15.9024 148.892 15.4636 149.285 14.9269L149.611 15.1917C149.178 15.7848 148.607 16.2628 147.949 16.5846C147.291 16.9064 146.564 17.0622 145.832 17.0386C145.18 17.0475 144.533 16.9181 143.934 16.6588C143.373 16.4133 142.869 16.0534 142.453 15.6019C142.026 15.1329 141.699 14.5812 141.492 13.9807C141.263 13.3238 141.149 12.6322 141.155 11.9363C141.148 11.2634 141.266 10.5952 141.503 9.96568C141.72 9.38988 142.043 8.86045 142.455 8.40526C142.853 7.97028 143.338 7.62425 143.878 7.38957C144.433 7.14729 145.033 7.02457 145.638 7.02931C146.301 7.01366 146.959 7.14713 147.564 7.41996C148.085 7.66173 148.548 8.01159 148.925 8.44649C149.286 8.87141 149.561 9.36314 149.735 9.89406C149.91 10.4268 150 10.9844 150 11.5456V11.9363H141.604ZM149.551 11.5456C149.543 10.97 149.436 10.4 149.234 9.86151C149.051 9.37887 148.777 8.93658 148.426 8.55935C148.083 8.19339 147.665 7.90616 147.201 7.71728C146.695 7.51382 146.153 7.41278 145.608 7.41996C144.974 7.40011 144.347 7.54991 143.79 7.85401C143.309 8.12846 142.889 8.49755 142.554 8.93914C142.246 9.34852 142.008 9.80703 141.85 10.2956C141.716 10.6958 141.643 11.1145 141.634 11.537L149.551 11.5456Z" fill="white"/>
<path d="M127.449 2.27657C127.411 2.2767 127.374 2.26885 127.339 2.25352C127.305 2.23819 127.274 2.21573 127.248 2.18759C127.218 2.15539 127.195 2.11744 127.181 2.07603C127.166 2.03463 127.159 1.99063 127.162 1.94669C127.16 1.90449 127.167 1.86241 127.182 1.8229C127.197 1.7834 127.219 1.74727 127.248 1.71664C127.274 1.68861 127.305 1.66623 127.339 1.65091C127.374 1.6356 127.411 1.62769 127.449 1.62769C127.487 1.62769 127.524 1.6356 127.559 1.65091C127.593 1.66623 127.624 1.68861 127.65 1.71664C127.68 1.74786 127.703 1.78497 127.719 1.82566C127.734 1.86636 127.741 1.90977 127.738 1.9532C127.741 1.99783 127.733 2.0424 127.717 2.08393C127.7 2.12547 127.675 2.16303 127.643 2.1941C127.592 2.24633 127.522 2.27598 127.449 2.27657Z" fill="white"/>
<path d="M57.4558 16.4743C57.4558 16.457 57.4558 16.4418 57.4558 16.4266C57.4569 16.4165 57.4569 16.4063 57.4558 16.3962V16.3528V16.3181C57.4558 16.3181 57.4558 16.2942 57.4558 16.2833L57.4428 16.2421C57.4428 16.2421 57.4428 16.2226 57.432 16.2139L57.4126 16.1705C57.4126 16.1705 57.4126 16.1596 57.4126 16.1553L53.3377 7.74549C53.3355 7.73766 53.3318 7.73031 53.3269 7.72379C53.3206 7.71032 53.3134 7.69727 53.3053 7.68473C53.3009 7.67459 53.2951 7.6651 53.2881 7.65651L53.2643 7.62179L53.2427 7.59358L53.2168 7.56319L53.1909 7.53715L53.165 7.5111L53.1218 7.48723L53.0916 7.46336L53.0592 7.44166L53.0311 7.42212L52.9922 7.40259L52.9706 7.37872L52.9318 7.36136L52.9059 7.35702H52.8778L52.8324 7.34399H52.8173H52.7612H52.6964H52.6251H52.5841H52.5517H52.5107H52.4783L52.4437 7.35485H52.407L52.379 7.36787L52.3358 7.38523L52.3099 7.39825L52.2688 7.41995L52.2429 7.43732L52.2084 7.46336L52.1803 7.48289L52.1501 7.50893L52.1241 7.53498L52.0982 7.56319L52.0745 7.5914L52.0507 7.61962C52.0507 7.63047 52.0356 7.64132 52.0291 7.65434L52.0097 7.68256L51.9881 7.72162L51.9773 7.74332L47.9133 16.1553C47.834 16.3363 47.8277 16.541 47.8956 16.7266C47.9635 16.9122 48.1003 17.0641 48.2773 17.1504C48.4543 17.2366 48.6577 17.2506 48.8447 17.1893C49.0318 17.1279 49.1878 16.9961 49.2802 16.8216L52.6251 9.8767L52.6446 9.8398L55.482 15.7343L55.4928 15.7538L55.482 15.7343H51.865C51.759 15.7228 51.6517 15.734 51.5503 15.767C51.4488 15.7999 51.3553 15.854 51.276 15.9256C51.1967 15.9973 51.1333 16.0849 51.0898 16.1828C51.0464 16.2807 51.024 16.3867 51.024 16.4938C51.024 16.601 51.0464 16.707 51.0898 16.8049C51.1333 16.9028 51.1967 16.9904 51.276 17.0621C51.3553 17.1337 51.4488 17.1878 51.5503 17.2207C51.6517 17.2537 51.759 17.2648 51.865 17.2534H56.6956C56.7456 17.2534 56.7954 17.2491 56.8446 17.2404L56.9073 17.2231H56.9224L56.9785 17.2014H56.9936H57.0174H57.0304L57.0714 17.1797L57.0973 17.1623L57.1297 17.1406L57.1599 17.1167L57.1858 17.0972L57.2182 17.0668L57.2377 17.0473L57.2679 17.0147L57.2852 16.9908L57.3111 16.9561L57.3305 16.9257L57.3499 16.8953C57.3499 16.8953 57.3607 16.8715 57.3672 16.8584L57.3802 16.8302C57.3868 16.8176 57.3926 16.8046 57.3975 16.7912C57.3975 16.7912 57.3975 16.7716 57.4083 16.763C57.4129 16.7495 57.4165 16.7357 57.419 16.7217C57.42 16.7109 57.42 16.7 57.419 16.6892V16.6523V16.6132C57.419 16.6024 57.419 16.5915 57.419 16.5807C57.418 16.5655 57.418 16.5503 57.419 16.5351V16.5069L57.4558 16.4743Z" fill="white"/>
</g>
<defs>
<clipPath id="clip0_2235_3147">
<rect width="150" height="22" fill="white"/>
</clipPath>
</defs>
</svg>
