<svg width="100" height="24" viewBox="0 0 100 24" fill="none" xmlns="http://www.w3.org/2000/svg">
<path d="M4.38368 0.0773926C2.02641 0.0773926 0.115479 2.01845 0.115479 4.41285V19.5869C0.115479 21.9813 2.02641 23.9224 4.38368 23.9224H6.51779C7.69645 23.9224 8.65189 22.9519 8.65189 21.7546V2.24512C8.65189 1.04792 7.69645 0.0773926 6.51779 0.0773926H4.38368ZM14.3152 1.1908C13.9075 0.782477 14.192 0.0773926 14.7646 0.0773926H19.3224C21.6797 0.0773926 23.5906 2.01845 23.5906 4.41285V8.92534C23.5906 9.5025 22.9054 9.7937 22.5009 9.38847L14.3152 1.1908ZM12.9201 8.16454C12.9201 7.58323 13.6137 7.29392 14.0158 7.7076L17.7449 11.5429C17.9912 11.7963 17.9912 12.2035 17.7449 12.4568L14.0158 16.2922C13.6137 16.7058 12.9201 16.4166 12.9201 15.8353V8.16454ZM14.7646 23.9224C14.192 23.9224 13.9075 23.2173 14.3152 22.809L22.5009 14.6113C22.9054 14.2061 23.5906 14.4972 23.5906 15.0744V19.5869C23.5906 21.9813 21.6797 23.9224 19.3224 23.9224H14.7646Z" fill="white"/>
<path d="M43.9992 0.0773926H35.515C33.2335 0.0773926 31.4155 1.81467 31.4155 3.96072V20.039C31.4155 22.1851 33.2335 23.9224 35.515 23.9224H43.9992C46.245 23.9224 48.063 22.1851 48.063 20.039V17.9611H43.8922V18.3018C43.8922 19.2216 43.108 19.9709 42.1456 19.9709H37.3688C36.4062 19.9709 35.622 19.2216 35.622 18.3018V15.2701H43.9992C46.245 15.2701 48.063 13.4986 48.063 11.3527V3.96072C48.063 1.81467 46.245 0.0773926 43.9992 0.0773926ZM43.8922 5.698V9.61538C43.8922 10.5352 43.108 11.2845 42.1456 11.2845H37.3688C36.4419 11.2845 35.6933 10.6032 35.622 9.75167V5.698C35.622 4.77827 36.4062 4.02885 37.3688 4.02885H42.1456C43.108 4.02885 43.8922 4.77827 43.8922 5.698Z" fill="white"/>
<path d="M57.0314 0.0773926L56.9958 18.2677C56.9958 19.2216 57.7801 19.9368 58.7782 19.9368H63.5549C64.5532 19.9368 65.3374 19.2216 65.3374 18.2677V15.2701H69.5082V20.039C69.5082 22.1851 67.6544 23.9224 65.4086 23.9224H56.8888C54.643 23.9224 52.825 22.1851 52.825 20.039V0.0773926H57.0314Z" fill="white"/>
<path d="M90.9529 20.039V3.99478C90.9529 1.81467 89.0992 0.0773926 86.8529 0.0773926H78.333C76.0874 0.0773926 74.269 1.81467 74.269 3.99478V8.0484H78.4404V5.73207C78.4404 4.81232 79.2602 4.02885 80.2227 4.02885H84.9992C85.9617 4.02885 86.7462 4.81232 86.7462 5.73207V11.3187H78.333C76.0874 11.3187 74.269 13.0559 74.269 15.2019V20.039C74.269 22.1851 76.0874 23.9224 78.333 23.9224H86.8529C89.0992 23.9224 90.9529 22.1851 90.9529 20.039ZM84.9992 19.9709H80.2227C79.2602 19.9709 78.4404 19.2216 78.4404 18.2677V16.9392C78.4404 16.0195 79.2602 15.2701 80.2227 15.2701H84.9992C85.9264 15.2701 86.7102 15.9855 86.7462 16.871V18.2677C86.7462 19.2216 85.9617 19.9709 84.9992 19.9709Z" fill="white"/>
<path d="M99.8844 4.06292H95.7139V0.0773926H99.8844V4.06292ZM99.8844 23.9224H95.7139V8.01436H99.8844V23.9224Z" fill="white"/>
</svg>
