<svg width="145" height="23" viewBox="0 0 145 23" fill="none" xmlns="http://www.w3.org/2000/svg">
<g clip-path="url(#clip0_2235_3219)">
<path fill-rule="evenodd" clip-rule="evenodd" d="M0 9.02539L13.6707 9.02568C17.0813 9.02568 19.9126 11.2627 20.4585 14.5182L6.78779 14.5177C3.37722 14.5177 0.546016 12.2808 0 9.02539Z" fill="white"/>
<path fill-rule="evenodd" clip-rule="evenodd" d="M0 22.7774L13.6707 22.7771C17.0813 22.7771 19.9126 20.5463 20.4585 17.2908L6.78779 17.2912C3.37722 17.2912 0.546016 19.5219 0 22.7774Z" fill="white"/>
<path fill-rule="evenodd" clip-rule="evenodd" d="M0 6.25512L13.6707 6.25484C17.0813 6.25484 19.9126 4.007 20.4585 0.751465L6.78779 0.751975C3.37722 0.751975 0.546016 2.9997 0 6.25512Z" fill="white"/>
<path fill-rule="evenodd" clip-rule="evenodd" d="M139.477 10.4594C138.806 10.4594 138.244 10.6488 137.788 11.0278C137.333 11.4069 137.054 11.925 136.953 12.582H141.982C141.881 11.9376 141.602 11.4226 141.146 11.0374C140.691 10.652 140.135 10.4594 139.477 10.4594ZM139.458 8.22301C140.457 8.22301 141.362 8.43785 142.172 8.86732C142.981 9.29698 143.616 9.91287 144.078 10.715C144.54 11.5174 144.771 12.4493 144.771 13.5105C144.771 13.5484 144.751 13.8137 144.714 14.3065H136.992L137.008 14.3788C137.156 14.9763 137.479 15.4514 137.978 15.8037C138.497 16.1702 139.142 16.3533 139.913 16.3533C140.444 16.3533 140.916 16.2742 141.327 16.1164C141.738 15.9585 142.121 15.7088 142.474 15.3678L144.05 17.0734L143.995 17.1351C143.035 18.1932 141.649 18.7222 139.838 18.7222C138.686 18.7222 137.668 18.4979 136.783 18.0495C135.897 17.6009 135.214 16.9788 134.733 16.1828C134.253 15.3867 134.013 14.4835 134.013 13.4727C134.013 12.4744 134.25 11.5742 134.724 10.772C135.199 9.96967 135.85 9.34434 136.678 8.89571C137.507 8.44731 138.434 8.22301 139.458 8.22301ZM129.867 6.19829V8.68107H132.39C132.39 10.1972 131.549 10.9553 129.867 10.9553V15.1056C129.867 15.5353 129.975 15.8669 130.19 16.1007C130.404 16.3344 130.715 16.4512 131.119 16.4512C131.575 16.4512 131.979 16.3248 132.334 16.0721L133.112 18.1568C132.821 18.3716 132.463 18.5327 132.04 18.64C131.616 18.7476 131.176 18.8013 130.721 18.8013C129.494 18.8013 128.552 18.4916 127.894 17.8725C127.237 17.2535 126.907 16.3439 126.907 15.1435V6.19829H129.867ZM121.253 18.6497H124.213V8.45355H121.253V18.6497ZM122.733 7.03225C123.277 7.03225 123.72 6.87117 124.061 6.54902C124.403 6.22667 124.573 5.81934 124.573 5.32665C124.573 4.87181 124.403 4.49268 124.061 4.18945C123.72 3.88623 123.277 3.73462 122.733 3.73462C122.189 3.73462 121.747 3.89248 121.405 4.20838C121.063 4.52429 120.893 4.91591 120.893 5.38343C120.893 5.85096 121.063 6.24258 121.405 6.55848C121.747 6.8742 122.189 7.03225 122.733 7.03225ZM112.525 18.8013C113.158 18.8013 113.746 18.6844 114.29 18.4506C114.834 18.2168 115.302 17.879 115.694 17.4366V18.6497H118.503V8.45355H115.542V13.4946C115.542 14.4043 115.327 15.0899 114.897 15.551C114.467 16.012 113.897 16.2429 113.19 16.2429C111.811 16.2429 111.121 15.4215 111.121 13.779V8.45355H108.162V14.2149C108.162 15.731 108.554 16.8744 109.338 17.6452C110.122 18.4159 111.185 18.8013 112.525 18.8013ZM100.686 18.877C101.9 18.877 102.932 18.6938 103.779 18.3274C104.627 17.9611 105.262 17.4652 105.686 16.8398C106.11 16.2142 106.322 15.5226 106.322 14.7645C106.322 13.88 106.09 13.1789 105.629 12.6609C105.167 12.1428 104.614 11.7639 103.969 11.5237C103.323 11.2837 102.495 11.0437 101.483 10.8037C100.509 10.5889 99.7847 10.3708 99.3102 10.1497C98.8367 9.92865 98.599 9.59075 98.599 9.13591C98.599 8.68107 98.8046 8.31463 99.2157 8.03658C99.6269 7.75871 100.263 7.61977 101.123 7.61977C102.35 7.61977 103.577 7.9671 104.804 8.66214L105.752 6.33097C105.145 5.95203 104.437 5.66129 103.627 5.45915C102.818 5.25699 101.989 5.15592 101.141 5.15592C99.927 5.15592 98.8991 5.33914 98.0585 5.70559C97.2169 6.07204 96.5883 6.56795 96.1707 7.19333C95.7532 7.81871 95.5448 8.51677 95.5448 9.28753C95.5448 10.1718 95.7752 10.8794 96.2368 11.4101C96.6984 11.9407 97.2518 12.326 97.897 12.566C98.5421 12.8063 99.3708 13.0462 100.382 13.2862C101.04 13.4378 101.562 13.5768 101.948 13.7032C102.334 13.8295 102.65 13.997 102.897 14.2054C103.144 14.414 103.267 14.6761 103.267 14.9918C103.267 15.4215 103.058 15.7658 102.641 16.0248C102.223 16.2839 101.578 16.4134 100.705 16.4134C99.9205 16.4134 99.1368 16.2869 98.3521 16.0343C97.5684 15.7815 96.8911 15.4467 96.3221 15.0299L95.2787 17.3419C95.8734 17.7968 96.6608 18.1663 97.6409 18.4506C98.621 18.7348 99.636 18.877 100.686 18.877ZM92.0538 18.8013C92.509 18.8013 92.9486 18.7476 93.3717 18.64C93.7957 18.5327 94.1527 18.3716 94.4445 18.1568L93.6663 16.0721C93.312 16.3248 92.9073 16.4512 92.4521 16.4512C92.0474 16.4512 91.7372 16.3344 91.5221 16.1007C91.3072 15.8669 91.1996 15.5353 91.1996 15.1056V10.9553C92.8816 10.9553 93.7232 10.1972 93.7232 8.68107H91.1996V6.19829H88.2398V15.1435C88.2398 16.3439 88.5687 17.2535 89.2263 17.8725C89.8841 18.4916 90.8265 18.8013 92.0538 18.8013ZM83.079 18.6497V13.8359C83.079 12.8882 83.3195 12.1776 83.8001 11.7039C84.2806 11.2299 84.9448 10.9931 85.7923 10.9931C85.9061 10.9931 86.1275 11.0058 86.4564 11.031V8.30194C85.6721 8.30194 84.9796 8.42838 84.3787 8.68107C83.7779 8.93376 83.3003 9.30644 82.9463 9.79916V8.45355H80.1193V18.6497H83.079ZM71.8849 16.3753C71.1259 16.3753 70.4999 16.1196 70.0067 15.6078C69.5131 15.0962 69.2666 14.4108 69.2666 13.5516C69.2666 12.6925 69.5131 12.0071 70.0067 11.4953C70.4999 10.9837 71.1259 10.7277 71.8849 10.7277C72.6312 10.7277 73.2509 10.9837 73.7442 11.4953C74.2376 12.0071 74.4842 12.6925 74.4842 13.5516C74.4842 14.4108 74.2376 15.0962 73.7442 15.6078C73.2509 16.1196 72.6312 16.3753 71.8849 16.3753ZM71.3727 18.8013C72.764 18.8013 73.8266 18.3589 74.5601 17.4746V18.6497H77.3871V8.45355H74.4272V9.53376C73.6936 8.71268 72.6755 8.30194 71.3727 8.30194C70.4113 8.30194 69.5417 8.51677 68.7639 8.94625C67.9858 9.37591 67.3755 9.98858 66.9329 10.7847C66.4902 11.5806 66.2689 12.503 66.2689 13.5516C66.2689 14.6002 66.4902 15.5226 66.9329 16.3186C67.3755 17.1144 67.9858 17.7274 68.7639 18.1568C69.5417 18.5864 70.4113 18.8013 71.3727 18.8013ZM50.0846 18.6497V13.5327C50.0846 12.6482 50.287 11.9818 50.6918 11.5333C51.0966 11.0847 51.6406 10.8604 52.3236 10.8604C53.6137 10.8604 54.2588 11.6628 54.2588 13.2673V18.6497H57.2187V13.5327C57.2187 12.6482 57.4209 11.9818 57.8257 11.5333C58.2304 11.0847 58.7807 10.8604 59.4764 10.8604C60.0962 10.8604 60.5738 11.0594 60.9089 11.4574C61.2441 11.8555 61.4117 12.4587 61.4117 13.2673V18.6497H64.3715V12.8125C64.3715 11.309 63.9952 10.1813 63.2425 9.42969C62.4901 8.67785 61.4749 8.30194 60.1975 8.30194C59.4385 8.30194 58.7396 8.44731 58.1009 8.73785C57.462 9.0284 56.9341 9.43914 56.5165 9.96967C56.1625 9.42647 55.6943 9.01269 55.1126 8.72839C54.5308 8.44409 53.8794 8.30194 53.1582 8.30194C51.2262 8.30194 49.9274 8.6294 48.9556 9.28771C47.9836 9.946 47.1249 11.2269 47.1249 12.8063V18.6497H50.0846ZM39.5925 18.877C40.8068 18.877 41.8377 18.6938 42.685 18.3274C43.5326 17.9611 44.168 17.4652 44.5918 16.8398C45.0156 16.2142 45.2275 15.5226 45.2275 14.7645C45.2275 13.88 44.9967 13.1789 44.535 12.6609C44.0734 12.1428 43.5199 11.7639 42.8748 11.5237C42.2298 11.2837 41.4012 11.0437 40.3894 10.8037C39.4153 10.5889 38.6913 10.3708 38.2169 10.1497C37.7426 9.92865 37.5055 9.59075 37.5055 9.13591C37.5055 8.68107 37.7109 8.31463 38.1221 8.03658C38.5331 7.75871 39.1687 7.61977 40.0289 7.61977C41.2557 7.61977 42.4828 7.9671 43.7096 8.66214L44.6583 6.33097C44.0512 5.95203 43.3428 5.66129 42.5333 5.45915C41.7239 5.25699 40.8952 5.15592 40.0478 5.15592C38.8335 5.15592 37.8058 5.33914 36.9647 5.70559C36.1236 6.07204 35.4943 6.56795 35.0768 7.19333C34.6594 7.81871 34.4507 8.51677 34.4507 9.28753C34.4507 10.1718 34.6815 10.8794 35.1433 11.4101C35.6049 11.9407 36.1584 12.326 36.8033 12.566C37.4485 12.8063 38.2769 13.0462 39.2889 13.2862C39.9467 13.4378 40.4684 13.5768 40.8541 13.7032C41.24 13.8295 41.5563 13.997 41.8028 14.2054C42.0496 14.414 42.1728 14.6761 42.1728 14.9918C42.1728 15.4215 41.9641 15.7658 41.5467 16.0248C41.1293 16.2839 40.4843 16.4134 39.6114 16.4134C38.8272 16.4134 38.0429 16.2869 37.2588 16.0343C36.4744 15.7815 35.7979 15.4467 35.2286 15.0299L34.1851 17.3419C34.7797 17.7968 35.5671 18.1663 36.5474 18.4506C37.5275 18.7348 38.5426 18.877 39.5925 18.877Z" fill="white"/>
</g>
<defs>
<clipPath id="clip0_2235_3219">
<rect width="145" height="22.943" fill="white"/>
</clipPath>
</defs>
</svg>
