<svg width="224" height="60" viewBox="0 0 224 60" fill="none" xmlns="http://www.w3.org/2000/svg">
<path fill-rule="evenodd" clip-rule="evenodd" d="M52.7143 18.8108C56.0324 18.8799 58.6807 21.6243 58.6608 24.973V43.4595C58.6807 46.8081 56.0324 49.5525 52.7143 49.6216H49.6607C48.1518 49.6216 46.9286 48.3874 46.9286 46.8649C46.9286 45.3424 48.1518 44.1081 49.6607 44.1081H52.7143C52.9741 44.0929 53.1813 43.8837 53.1964 43.6216V24.973C53.2155 24.839 53.1709 24.7037 53.076 24.608C52.9811 24.5122 52.8471 24.4672 52.7143 24.4865H45.6428V24.8108C45.6629 28.1595 43.0145 30.9039 39.6964 30.973H22.8214L18.3214 38.5946V43.6216C18.3365 43.8837 18.5438 44.0929 18.8036 44.1081H37.125C38.0519 44.0997 38.9115 44.5954 39.375 45.4054L44.8393 54.973C45.22 55.592 45.3324 56.3416 45.1501 57.0466C44.9678 57.7515 44.5069 58.3502 43.875 58.7027C43.4391 58.9628 42.9326 59.0764 42.4286 59.027C41.4578 59.0399 40.5481 58.5503 40.0178 57.7297L35.3571 49.4595H18.9643C15.6462 49.3904 12.9978 46.6459 13.0178 43.2973V37.4595C13.0477 36.9589 13.1562 36.4662 13.3393 36L18.9643 26.4324C19.4277 25.6224 20.2873 25.1268 21.2143 25.1351H39.5357C39.7955 25.1199 40.0028 24.9108 40.0178 24.6486V6.16216C40.0369 6.02815 39.9923 5.8929 39.8974 5.79717C39.8026 5.70144 39.6685 5.65642 39.5357 5.67568H5.78569C5.52591 5.69087 5.31861 5.90004 5.30355 6.16216V24.6486C5.31861 24.9108 5.52591 25.1199 5.78569 25.1351H8.83927C10.3283 25.1842 11.5225 26.394 11.565 27.8967C11.6076 29.3994 10.4839 30.676 8.99998 30.8108H5.94641C2.62831 30.7417 -0.0200518 27.9973 -0.00013251 24.6486V6.16216C-0.0200518 2.81352 2.62831 0.0690758 5.94641 0H39.6964C43.0145 0.0690758 45.6629 2.81352 45.6428 6.16216V18.8108H52.7143ZM18.9643 15.4054C18.9643 16.3892 18.3769 17.2762 17.4761 17.6527C16.5753 18.0292 15.5384 17.8211 14.8489 17.1254C14.1595 16.4297 13.9532 15.3835 14.3263 14.4746C14.6995 13.5656 15.5785 12.973 16.5536 12.973C17.8714 13.0054 18.9321 14.0757 18.9643 15.4054ZM31.5 15.4054C31.5 16.7488 30.4207 17.8378 29.0893 17.8378C27.7579 17.8378 26.6786 16.7488 26.6786 15.4054C26.6786 14.062 27.7579 12.973 29.0893 12.973C29.7322 12.961 30.3523 13.2134 30.807 13.6722C31.2617 14.131 31.5119 14.7567 31.5 15.4054ZM27.9643 34.2162C27.9643 32.8728 29.0436 31.7838 30.375 31.7838C31.7064 31.7838 32.7857 32.8728 32.7857 34.2162C32.7857 35.5596 31.7064 36.6486 30.375 36.6486C29.732 36.6607 29.1119 36.4082 28.6572 35.9494C28.2025 35.4906 27.9524 34.8649 27.9643 34.2162ZM40.5 34.2162C40.5 32.8728 41.5793 31.7838 42.9107 31.7838C44.2421 31.7838 45.3214 32.8728 45.3214 34.2162C45.3214 35.5596 44.2421 36.6486 42.9107 36.6486C41.5929 36.6162 40.5322 35.5459 40.5 34.2162ZM85.1786 17.1892V41.5135H77.625V17.1892H71.0357V10.5405H91.9286V17.3514H85.1786V17.1892ZM101.411 26.5946C102.946 26.5997 104.469 26.874 105.911 27.4054V26.5946C105.911 25.1351 104.786 24 102.375 24C100.365 24.061 98.3914 24.5588 96.5893 25.4595L93.8571 20.4324C96.6605 18.5312 99.9614 17.515 103.339 17.5135C111.375 17.5135 113.304 21.5676 113.304 26.9189V41.3514H106.714L106.393 40.0541C104.932 41.3395 103.022 41.9818 101.089 41.8378C96.5893 41.8378 92.5714 39.0811 92.5714 34.0541C92.4107 29.6757 95.9464 26.5946 101.411 26.5946ZM102.857 36.4865C104.625 36.4865 105.911 35.6757 105.911 34.0541C105.911 32.4324 104.625 31.6216 102.857 31.6216C101.089 31.6216 99.8036 32.5946 99.8036 34.0541C99.8036 35.6757 101.089 36.4865 102.857 36.4865ZM116.036 9.40541H123.429V41.5135H116.036V9.40541ZM140.946 28.8649L148.982 41.5135H140.304L133.875 30.6486V41.5135H126.482V9.40541H133.875V27.5676L140.143 18.1622H148.339L140.946 28.8649ZM149.464 12.8108C149.426 11.7243 149.837 10.6706 150.599 9.90181C151.361 9.13303 152.405 8.71828 153.482 8.75676C154.583 8.68438 155.663 9.08258 156.458 9.85387C157.253 10.6252 157.689 11.6984 157.661 12.8108C157.661 15.0946 155.826 16.9459 153.562 16.9459C151.299 16.9459 149.464 15.0946 149.464 12.8108ZM157.339 41.5135H149.946V18.1622H157.339V41.5135ZM166.821 31.7838C167.159 34.1614 169.27 35.8651 171.643 35.6757C173.537 35.6631 175.318 34.7646 176.464 33.2432L181.286 36.973C179.146 40.3176 175.426 42.2867 171.482 42.1622C168.22 42.3393 165.036 41.1206 162.71 38.8054C160.385 36.4903 159.136 33.2933 159.268 30C159.268 23.1892 163.768 17.6757 170.679 17.6757C178.071 17.6757 182.089 22.3784 182.089 30.3243V31.7838H166.821ZM167.143 27.0811H174.696C174.671 26.1289 174.263 25.2281 173.565 24.5858C172.868 23.9436 171.942 23.615 171 23.6757C169.003 23.5432 167.278 25.0669 167.143 27.0811ZM182.25 37.7838C182.25 36.0129 183.307 34.4164 184.929 33.7387C186.55 33.061 188.417 33.4356 189.658 34.6878C190.899 35.94 191.27 37.8232 190.598 39.4593C189.927 41.0954 188.344 42.1622 186.589 42.1622C185.437 42.1669 184.331 41.7072 183.516 40.885C182.701 40.0629 182.245 38.9465 182.25 37.7838ZM201.214 26.5946C202.75 26.5997 204.272 26.874 205.714 27.4054V26.5946C205.714 25.1351 204.589 24 202.179 24C200.168 24.061 198.195 24.5588 196.393 25.4595L193.661 20.4324C196.464 18.5312 199.765 17.515 203.143 17.5135C211.179 17.5135 213.107 21.5676 213.107 26.9189V41.3514H206.518L206.196 40.0541C204.736 41.3395 202.826 41.9818 200.893 41.8378C196.393 41.8378 192.375 39.0811 192.375 34.0541C192.214 29.6757 195.75 26.5946 201.214 26.5946ZM202.661 36.4865C204.429 36.4865 205.714 35.6757 205.714 34.0541C205.714 32.4324 204.429 31.6216 202.661 31.6216C200.893 31.6216 199.607 32.5946 199.607 34.0541C199.446 35.6757 200.893 36.4865 202.661 36.4865ZM215.357 12.8108C215.319 11.7243 215.73 10.6706 216.492 9.90181C217.254 9.13303 218.298 8.71828 219.375 8.75676C220.476 8.68438 221.555 9.08258 222.35 9.85387C223.145 10.6252 223.582 11.6984 223.554 12.8108C223.554 15.0946 221.719 16.9459 219.455 16.9459C217.192 16.9459 215.357 15.0946 215.357 12.8108ZM223.232 41.5135H215.839V18.1622H223.232V41.5135Z" fill="white"/>
</svg>
