<?xml version="1.0" encoding="UTF-8"?>
<svg width="32px" height="32px" viewBox="0 0 32 32" version="1.1" xmlns="http://www.w3.org/2000/svg" xmlns:xlink="http://www.w3.org/1999/xlink">
    <g id="home" stroke="none" stroke-width="1" fill="none" fill-rule="evenodd">
        <g id="logo-vec">
            <g id="logo-copy">
                <circle id="Oval" fill="#015BBB" cx="16" cy="16" r="16"></circle>
                <g id="{-}" transform="translate(5.000000, 9.902000)" fill="#FFFFFF" fill-rule="nonzero">
                    <path d="M3.794,12.194 L5.096,12.194 L5.096,10.934 L3.934,10.934 C3.15,10.934 2.66,10.43 2.66,9.646 L2.66,8.204 C2.66,7.294 2.45,6.44 1.61,6.076 C2.45,5.768 2.674,4.956 2.674,4.032 L2.674,2.548 C2.674,1.764 3.15,1.246 3.934,1.246 L5.096,1.246 L5.096,0 L3.78,0 C2.142,0 1.134,0.896 1.134,2.17 L1.134,4.074 C1.134,4.914 1.05,5.418 0,5.418 L0,6.776 C1.036,6.776 1.134,7.364 1.134,8.162 L1.134,10.01 C1.134,11.284 2.156,12.194 3.794,12.194 Z" id="{"></path>
                    <path d="M18.202,12.194 C19.84,12.194 20.862,11.284 20.862,10.01 L20.862,8.162 C20.862,7.364 20.96,6.776 21.996,6.776 L21.996,5.418 C20.946,5.418 20.862,4.914 20.862,4.074 L20.862,2.17 C20.862,0.896 19.854,0 18.216,0 L16.9,0 L16.9,1.246 L18.062,1.246 C18.846,1.246 19.322,1.764 19.322,2.548 L19.322,4.032 C19.322,4.956 19.546,5.768 20.386,6.076 C19.546,6.44 19.336,7.294 19.336,8.204 L19.336,9.646 C19.336,10.43 18.846,10.934 18.062,10.934 L16.9,10.934 L16.9,12.194 L18.202,12.194 Z" id="}"></path>
                </g>
            </g>
            <path d="M20.1690719,16.3247629 L16.0046278,20.5 L11.8401836,16.3247629 M11.8401836,16.3247629 C11.0913044,15.5870598 10.815025,14.4861748 11.1252764,13.4760868 C11.4355278,12.4659987 12.2797565,11.7178065 13.3098227,11.5400467 C14.339889,11.3622869 15.3813097,11.7850703 16.0046278,12.6340512 C16.630558,11.7913515 17.6697535,11.3741803 18.6960826,11.5536025 C19.7224116,11.7330248 20.5632066,12.4788548 20.8736917,13.4852581 C21.1841768,14.4916614 20.9121166,15.5893225 20.1690719,16.3281355" id="Shape" fill="#FFFFFF"></path>
        </g>
    </g>
</svg>